<?xml version="1.0" encoding="UTF-8"?>
<svg id="Layer_1" xmlns="http://www.w3.org/2000/svg" viewBox="0 0 441.57 289.78">
  <defs>
    <style>
      .cls-1 {
        fill: #89b1ff;
      }

      .cls-2 {
        fill: #fff;
      }

      .cls-3 {
        fill: #e11f8e;
      }

      .cls-4 {
        fill: #2c65cf;
      }
    </style>
  </defs>
  <path class="cls-1" d="m4.99,0c145.53,3.99,291.06,7.97,436.58,11.96v66.98c-146.86.8-293.71,1.59-440.57,2.39C2.33,54.22,3.66,27.11,4.99,0Z" />
  <rect class="cls-4" x="15.75" y="19.14" width="47.05" height="48.64" />
  <path class="cls-4" d="m430.41,62.2c-119.08,1.86-238.16,3.72-357.24,5.58V20.73c118.81,3.46,237.63,6.91,356.44,10.37.27,10.37.53,20.73.8,31.1Z" />
  <path class="cls-3" d="m422.01,284.2c-119.08,1.86-238.16,3.72-357.24,5.58v-47.05c118.81,3.46,237.63,6.91,356.44,10.37.27,10.37.53,20.73.8,31.1Z" />
  <path class="cls-2" d="m59.31,57.03l-9.69,7.99-13.15-15.34v11.93h-13.15v-12.7c0-4.12,1.68-7.01,5.03-8.67l-5.25-6.13,9.69-7.99,11.43,13.35.05-11.11h13.17v7.64c0,2.51-.61,4.67-1.84,6.47-1.29,1.94-3.11,3.25-5.45,3.93l9.16,10.61Z" />
  <path class="cls-1" d="m3.99,113c145.53,3.99,291.06,7.97,436.58,11.96v66.98c-146.86.8-293.71,1.59-440.57,2.39,1.33-27.11,2.66-54.22,3.99-81.34Z" />
  <rect class="cls-4" x="14.75" y="132.14" width="47.05" height="48.64" />
  <path class="cls-3" d="m429.41,175.2c-119.08,1.86-238.16,3.72-357.24,5.58v-47.05c118.81,3.46,237.63,6.91,356.44,10.37.27,10.37.53,20.73.8,31.1Z" />
  <path class="cls-2" d="m58.31,170.03l-9.69,7.99-13.15-15.34v11.93h-13.15v-12.7c0-4.12,1.68-7.01,5.03-8.67l-5.25-6.13,9.69-7.99,11.43,13.35.05-11.11h13.17v7.64c0,2.51-.61,4.67-1.84,6.47-1.29,1.94-3.11,3.25-5.45,3.93l9.16,10.61Z" />
</svg>